<?xml version="1.0" encoding="UTF-8"?>
<svg id="Warstwa_1" xmlns="http://www.w3.org/2000/svg" version="1.1" viewBox="0 0 84.51 20.97">
  <!-- Generator: Adobe Illustrator 29.7.1, SVG Export Plug-In . SVG Version: 2.1.1 Build 8)  -->
  <defs>
    <style>
      .st0 {
        fill: #231f20;
      }

      .st1 {
        fill: #20bdc0;
        fill-rule: evenodd;
      }

      .st2 {
        fill: #bcbec0;
      }
    </style>
  </defs>
  <path class="st2" d="M31.32,15.82V5.47h3.56c.8,0,1.42.05,1.84.15.59.13,1.1.38,1.52.74.54.46.95,1.05,1.22,1.77.27.72.41,1.54.41,2.46,0,.79-.09,1.48-.28,2.09-.18.61-.42,1.11-.71,1.51-.29.4-.6.71-.94.94-.34.23-.75.4-1.23.52-.48.12-1.04.18-1.66.18h-3.73ZM32.69,14.6h2.21c.68,0,1.22-.06,1.61-.19.39-.13.7-.31.93-.54.33-.32.58-.76.76-1.31.18-.55.27-1.21.27-1.99,0-1.08-.18-1.91-.53-2.49-.36-.58-.79-.97-1.3-1.17-.37-.14-.96-.21-1.77-.21h-2.17v7.9h0ZM41.79,15.82V5.47h7.48v1.22h-6.11v3.17h5.72v1.21h-5.72v3.52h6.35v1.22h-7.72ZM50.94,12.5l1.29-.11c.06.52.2.94.43,1.27.22.33.57.6,1.04.8.47.2,1,.31,1.59.31.52,0,.98-.08,1.38-.23.4-.16.7-.37.89-.64.2-.27.29-.57.29-.89s-.09-.61-.28-.85c-.19-.24-.5-.45-.93-.61-.28-.11-.89-.28-1.84-.51-.95-.23-1.62-.44-2-.65-.49-.26-.86-.58-1.11-.96-.24-.38-.36-.81-.36-1.29,0-.52.15-1.01.44-1.46.3-.46.73-.8,1.3-1.04.57-.23,1.2-.35,1.9-.35.77,0,1.44.12,2.03.37.58.25,1.04.61,1.35,1.09.31.48.48,1.02.51,1.63l-1.31.1c-.07-.65-.31-1.15-.72-1.48-.41-.33-1.01-.5-1.8-.5s-1.43.15-1.81.46c-.38.3-.57.67-.57,1.1,0,.37.13.68.4.92.26.24.95.49,2.06.74,1.11.25,1.88.47,2.29.66.6.28,1.05.63,1.33,1.06.29.43.43.92.43,1.47s-.16,1.07-.47,1.56c-.32.49-.77.86-1.36,1.14-.59.27-1.25.4-1.99.4-.94,0-1.72-.13-2.35-.41-.63-.27-1.13-.68-1.49-1.23-.36-.55-.55-1.17-.57-1.86h0ZM61.28,15.82V5.47h1.37v10.35h-1.37ZM69.9,11.76v-1.21h4.38s0,3.83,0,3.83c-.67.54-1.37.94-2.08,1.21-.72.27-1.45.4-2.2.4-1.02,0-1.94-.22-2.77-.65-.83-.43-1.46-1.07-1.88-1.89-.42-.82-.64-1.74-.64-2.76s.21-1.95.63-2.82c.42-.87,1.03-1.52,1.82-1.95.79-.42,1.7-.63,2.73-.63.75,0,1.42.12,2.03.36.6.24,1.08.58,1.42,1.01.34.43.6,1,.79,1.69l-1.24.34c-.16-.53-.35-.94-.58-1.24-.23-.3-.56-.54-.99-.72-.43-.18-.9-.27-1.42-.27-.63,0-1.17.1-1.62.29-.46.19-.82.44-1.11.75-.28.31-.5.65-.65,1.02-.26.64-.4,1.33-.4,2.08,0,.92.16,1.69.48,2.31.32.62.78,1.08,1.39,1.38.61.3,1.25.45,1.93.45.59,0,1.17-.12,1.74-.34.57-.23.99-.47,1.28-.73v-1.93h-3.04ZM76.28,15.82V5.47h1.4l5.43,8.12V5.47h1.31v10.35h-1.4l-5.43-8.13v8.13h-1.31Z"/>
  <path class="st0" d="M2.45,19.95l.39.09c-.08.3-.23.53-.44.69-.21.16-.47.24-.78.24s-.58-.06-.78-.18-.35-.3-.46-.53c-.1-.23-.16-.48-.16-.74,0-.29.06-.54.18-.75.12-.21.29-.38.5-.49.22-.11.46-.17.72-.17.3,0,.54.07.75.21.2.14.34.34.42.59l-.38.09c-.07-.2-.17-.35-.3-.44-.13-.09-.29-.14-.49-.14-.23,0-.42.05-.57.15-.15.1-.26.24-.32.41-.06.17-.09.35-.09.53,0,.24.04.44.11.62.07.17.19.31.34.39.16.09.32.13.5.13.22,0,.4-.06.56-.18.15-.12.25-.29.31-.53h0ZM5.62,20.93v-2.77h1.31c.26,0,.46.03.6.08.14.05.25.14.33.26.08.13.12.27.12.42,0,.2-.07.36-.2.5-.14.13-.35.22-.63.26.1.05.18.09.24.14.11.1.22.22.32.37l.51.75h-.49l-.39-.58c-.11-.17-.21-.29-.28-.38-.07-.09-.14-.15-.2-.19-.06-.04-.12-.06-.18-.07-.04,0-.12-.01-.22-.01h-.45v1.23h-.39ZM6.01,19.38h.84c.18,0,.32-.02.42-.05.1-.04.18-.09.23-.17.05-.08.08-.16.08-.25,0-.13-.05-.24-.15-.32-.1-.08-.26-.13-.48-.13h-.94v.92h0ZM10.9,20.93v-2.77h2.14v.33h-1.75v.85h1.64v.32h-1.64v.94h1.81v.33h-2.21ZM15.62,20.93l1.14-2.77h.42l1.21,2.77h-.45l-.34-.84h-1.24l-.32.84h-.42ZM16.47,19.79h1l-.31-.77c-.09-.23-.16-.42-.21-.57-.04.18-.09.35-.16.53l-.33.81h0ZM21.44,20.93v-2.44h-.97v-.33h2.34v.33h-.98v2.44h-.39ZM25.57,20.93v-2.77h.39v2.77h-.39ZM29.79,20.93l-1.15-2.77h.42l.77,2.01c.06.16.11.31.15.45.05-.15.1-.3.16-.45l.8-2.01h.4l-1.16,2.77h-.4ZM39.18,20.93l1.14-2.77h.42l1.21,2.77h-.45l-.34-.84h-1.24l-.32.84h-.42ZM40.03,19.79h1l-.31-.77c-.09-.23-.16-.42-.21-.57-.04.18-.09.35-.16.53l-.33.81h0ZM44.56,20.93v-2.77h1.31c.26,0,.46.03.6.08.14.05.25.14.33.26.08.13.12.27.12.42,0,.2-.07.36-.2.5-.14.13-.35.22-.63.26.1.05.18.09.24.14.11.1.22.22.32.37l.51.75h-.49l-.39-.58c-.11-.17-.21-.29-.28-.38-.07-.09-.14-.15-.2-.19-.06-.04-.12-.06-.18-.07-.04,0-.12-.01-.22-.01h-.45v1.23h-.39ZM44.95,19.38h.84c.18,0,.32-.02.42-.05.1-.04.18-.09.23-.17.05-.08.08-.16.08-.25,0-.13-.05-.24-.15-.32-.1-.08-.26-.13-.48-.13h-.94v.92h0ZM50.51,20.93v-2.44h-.97v-.33h2.34v.33h-.98v2.44h-.39ZM57.81,20.04l.37-.03c.02.14.06.25.12.34.06.09.16.16.3.21.13.05.29.08.45.08.15,0,.28-.02.39-.06s.2-.1.26-.17c.06-.07.08-.15.08-.24s-.03-.16-.08-.23c-.05-.07-.14-.12-.27-.16-.08-.03-.25-.07-.53-.13-.27-.06-.46-.12-.57-.17-.14-.07-.25-.16-.32-.26-.07-.1-.1-.22-.1-.34,0-.14.04-.27.13-.39.08-.12.21-.21.37-.28.16-.06.34-.09.54-.09.22,0,.41.03.58.1.17.07.3.16.39.29.09.13.14.27.15.44l-.37.03c-.02-.17-.09-.31-.2-.4-.12-.09-.29-.13-.51-.13s-.41.04-.52.12c-.11.08-.16.18-.16.29,0,.1.04.18.12.25.08.06.27.13.59.2.32.07.54.13.65.18.17.08.3.17.38.28.08.11.12.25.12.39s-.04.29-.13.42c-.09.13-.22.23-.39.3-.17.07-.36.11-.57.11-.27,0-.49-.04-.67-.11-.18-.07-.32-.18-.43-.33-.1-.15-.16-.31-.16-.5h0ZM63.74,20.93v-2.44h-.97v-.33h2.34v.33h-.98v2.44h-.39ZM69.75,18.16h.39v1.6c0,.28-.03.5-.1.66-.07.16-.19.3-.36.4-.17.1-.41.15-.69.15s-.5-.04-.68-.13c-.18-.09-.3-.22-.38-.39-.08-.17-.11-.4-.11-.69v-1.6h.39v1.6c0,.24.02.42.07.53.05.11.13.2.25.26.12.06.26.09.43.09.29,0,.49-.06.61-.18.12-.12.18-.36.18-.7v-1.6h0ZM73.09,20.93v-2.77h1.02c.23,0,.41.01.53.04.17.04.31.1.43.2.16.12.27.28.35.47.08.19.12.41.12.66,0,.21-.03.4-.08.56-.05.16-.12.3-.2.4-.08.11-.17.19-.27.25-.1.06-.21.11-.35.14-.14.03-.3.05-.47.05h-1.07ZM73.48,20.6h.63c.2,0,.35-.02.46-.05.11-.03.2-.08.27-.14.09-.09.17-.2.22-.35.05-.15.08-.32.08-.53,0-.29-.05-.51-.15-.67-.1-.16-.23-.26-.37-.31-.1-.04-.27-.06-.51-.06h-.62v2.12h0ZM78.43,20.93v-2.77h.39v2.77h-.39ZM81.69,19.58c0-.46.13-.82.4-1.08.26-.26.6-.39,1.02-.39.27,0,.52.06.74.18.22.12.39.29.5.51.12.22.17.47.17.74s-.06.53-.18.75c-.12.22-.29.39-.51.5-.22.11-.46.17-.72.17-.28,0-.53-.06-.75-.19-.22-.13-.39-.3-.5-.52-.11-.22-.17-.45-.17-.69h0ZM82.09,19.58c0,.33.1.6.29.79s.43.29.72.29.54-.1.73-.29c.19-.19.29-.47.29-.83,0-.22-.04-.42-.12-.59-.08-.17-.2-.3-.36-.39-.16-.09-.33-.14-.53-.14-.28,0-.52.09-.71.27-.2.18-.3.48-.3.89Z"/>
  <path class="st0" d="M.93,2.82L0,.05h.48l.54,1.81c.06.19.11.38.15.57.09-.3.14-.47.16-.51L1.99.05h.56l.5,1.4c.13.35.22.67.27.98.04-.17.1-.38.18-.6L4.06.05h.47l-.97,2.77h-.45l-.74-2.11c-.06-.18-.1-.29-.11-.32-.04.13-.07.23-.1.32l-.75,2.11h-.48ZM8.31,2.82L7.37.05h.48l.54,1.81c.06.19.11.38.15.57.09-.3.14-.47.16-.51L9.36.05h.56l.5,1.4c.13.35.22.67.27.98.04-.17.1-.38.18-.6L11.43.05h.47l-.97,2.77h-.45l-.74-2.11c-.06-.18-.1-.29-.11-.32-.04.13-.07.23-.1.32l-.75,2.11h-.48ZM15.68,2.82L14.75.05h.48l.54,1.81c.06.19.11.38.15.57.09-.3.14-.47.16-.51l.67-1.87h.56l.5,1.4c.13.35.22.67.27.98.04-.17.1-.38.18-.6l.55-1.78h.47l-.97,2.77h-.45l-.74-2.11c-.06-.18-.1-.29-.11-.32-.04.13-.07.23-.1.32l-.75,2.11h-.48ZM22.23,2.82v-.39h.49v.39h-.49ZM27.41,1.85l.47.09c-.1.3-.27.53-.53.69-.25.16-.56.24-.93.24s-.69-.06-.92-.18c-.24-.12-.42-.3-.54-.53-.12-.23-.19-.48-.19-.74,0-.29.07-.54.21-.75.14-.21.34-.38.6-.49.26-.11.54-.17.85-.17.35,0,.65.07.89.21.24.14.41.34.5.59l-.46.09c-.08-.2-.2-.35-.36-.44-.15-.09-.35-.14-.59-.14-.27,0-.5.05-.68.15-.18.1-.31.24-.38.41-.07.17-.11.35-.11.53,0,.24.04.44.13.62.09.18.22.31.41.39.19.09.38.13.6.13.26,0,.48-.06.66-.18.18-.12.3-.29.37-.53h0ZM31.21,2.82V.05h2.37v.33h-1.91v.86h1.65v.33h-1.65v1.26h-.47ZM36.76,1.93l.44-.03c.02.14.07.25.15.34.08.09.19.16.35.22.16.05.34.08.54.08.18,0,.33-.02.47-.06.14-.04.24-.1.3-.17.07-.07.1-.15.1-.24s-.03-.16-.1-.23c-.06-.06-.17-.12-.32-.16-.1-.03-.3-.07-.63-.14-.32-.06-.55-.12-.68-.17-.17-.07-.29-.16-.38-.26-.08-.1-.12-.22-.12-.34,0-.14.05-.27.15-.39.1-.12.25-.21.44-.28.19-.06.41-.09.65-.09.26,0,.49.03.69.1.2.07.35.16.46.29.11.13.16.27.17.44l-.45.03c-.02-.17-.11-.31-.24-.4-.14-.09-.34-.13-.61-.13s-.49.04-.62.12c-.13.08-.19.18-.19.29,0,.1.05.18.14.25.09.06.32.13.7.2.38.07.64.13.78.18.2.08.36.17.45.28.1.11.15.25.15.39s-.05.29-.16.42c-.11.13-.26.23-.46.3-.2.07-.43.11-.68.11-.32,0-.59-.04-.8-.11-.22-.07-.38-.18-.51-.33-.12-.15-.19-.31-.19-.5h0ZM43.83,2.82V.38h-1.16V.05h2.79v.33h-1.16v2.44h-.46ZM50.97.05h.47v1.6c0,.28-.04.5-.12.66-.08.16-.22.3-.43.4-.21.1-.48.15-.82.15s-.6-.04-.81-.13c-.21-.09-.36-.22-.45-.39-.09-.17-.13-.4-.13-.69V.05h.47v1.6c0,.24.03.42.09.53.06.11.15.2.29.26.14.06.31.09.51.09.34,0,.59-.06.73-.18.14-.12.22-.36.22-.7V.05h0ZM54.95,2.82V.05h1.21c.27,0,.48.01.63.04.2.04.37.1.52.2.19.12.33.28.42.47.09.19.14.41.14.66,0,.21-.03.4-.09.56-.06.16-.14.3-.24.4-.1.11-.2.19-.32.25-.12.06-.26.11-.42.14-.16.03-.35.05-.56.05h-1.27ZM55.41,2.49h.75c.23,0,.41-.02.55-.05.13-.03.24-.08.32-.14.11-.09.2-.2.26-.35.06-.15.09-.32.09-.53,0-.29-.06-.51-.18-.67-.12-.16-.27-.26-.44-.31-.12-.04-.33-.06-.6-.06h-.74v2.12h0ZM61.31,2.82V.05h.46v2.77h-.46ZM65.19,1.47c0-.46.16-.82.47-1.08.31-.26.72-.39,1.21-.39.32,0,.62.06.88.18.26.12.46.29.6.51.14.22.21.47.21.74s-.07.53-.22.75c-.14.22-.35.39-.61.5-.26.11-.55.17-.85.17-.33,0-.63-.06-.89-.19-.26-.13-.46-.3-.59-.52-.13-.22-.2-.45-.2-.69h0ZM65.67,1.48c0,.33.11.6.34.79.23.19.52.29.86.29s.64-.1.87-.29c.23-.19.34-.47.34-.83,0-.23-.05-.42-.15-.59-.1-.17-.24-.3-.42-.39-.19-.09-.4-.14-.63-.14-.33,0-.61.09-.85.27-.24.18-.36.48-.36.89h0ZM71.95,2.82v-.39h.49v.39h-.49ZM75.98,2.82V.05h1.33c.23,0,.41,0,.54.03.17.02.32.07.44.13.12.06.21.15.28.27.07.11.11.24.11.38,0,.24-.1.43-.29.6-.19.16-.53.24-1.03.24h-.9v1.13h-.47ZM76.45,1.37h.91c.3,0,.51-.04.64-.13.13-.09.19-.21.19-.37,0-.12-.04-.22-.11-.3-.08-.08-.17-.14-.29-.16-.08-.02-.22-.02-.43-.02h-.9v.99h0ZM81.98,2.82V.05h.47v2.44h1.73v.33h-2.2Z"/>
  <path class="st1" d="M.02,5.26h9.29v2.68H2.7v5.21h6.61v2.68H.02V5.26H.02ZM30.2,10.98h.01v2.68h-.01v2.16h-9.29v-2.68h6.47v-1.24h-6.47v-6.64h9.29v2.68h-6.46v1.28h6.46v1.76h0ZM10.52,13.14h2.83v2.68h-2.83v-2.68h0ZM10.52,9.11h9.29v2.68h-9.29v-2.68h0ZM10.52,5.26h9.29v2.68h-9.29v-2.68Z"/>
</svg>